<mxfile host="app.diagrams.net" modified="2023-06-17T06:16:42.307Z" agent="Mozilla/5.0 (Windows NT 10.0; Win64; x64) AppleWebKit/537.36 (KHTML, like Gecko) Chrome/109.0.0.0 Safari/537.36" etag="8QZt5ay00ZsNtkBnwHs0" version="21.4.0" type="github">
  <diagram id="C5RBs43oDa-KdzZeNtuy" name="Page-1">
    <mxGraphModel dx="2427" dy="1815" grid="0" gridSize="10" guides="1" tooltips="1" connect="1" arrows="1" fold="1" page="1" pageScale="1" pageWidth="827" pageHeight="1169" background="#ffffff" math="0" shadow="0">
      <root>
        <mxCell id="WIyWlLk6GJQsqaUBKTNV-0" />
        <mxCell id="WIyWlLk6GJQsqaUBKTNV-1" parent="WIyWlLk6GJQsqaUBKTNV-0" />
        <mxCell id="vWXfaH1pGNp-byhTUiaN-63" style="edgeStyle=orthogonalEdgeStyle;rounded=0;orthogonalLoop=1;jettySize=auto;html=1;" parent="WIyWlLk6GJQsqaUBKTNV-1" source="vWXfaH1pGNp-byhTUiaN-61" target="vWXfaH1pGNp-byhTUiaN-62" edge="1">
          <mxGeometry relative="1" as="geometry" />
        </mxCell>
        <mxCell id="vWXfaH1pGNp-byhTUiaN-61" value="配置人员" style="shape=umlActor;verticalLabelPosition=bottom;verticalAlign=top;html=1;" parent="WIyWlLk6GJQsqaUBKTNV-1" vertex="1">
          <mxGeometry x="-606" y="95" width="30" height="60" as="geometry" />
        </mxCell>
        <mxCell id="vWXfaH1pGNp-byhTUiaN-62" value="范式管理" style="ellipse;whiteSpace=wrap;html=1;" parent="WIyWlLk6GJQsqaUBKTNV-1" vertex="1">
          <mxGeometry x="-250" y="90" width="140" height="70" as="geometry" />
        </mxCell>
        <mxCell id="vWXfaH1pGNp-byhTUiaN-65" value="查询范式列表" style="ellipse;whiteSpace=wrap;html=1;" parent="WIyWlLk6GJQsqaUBKTNV-1" vertex="1">
          <mxGeometry x="-130" y="-70" width="140" height="70" as="geometry" />
        </mxCell>
        <mxCell id="vWXfaH1pGNp-byhTUiaN-66" value="查询范式详情" style="ellipse;whiteSpace=wrap;html=1;" parent="WIyWlLk6GJQsqaUBKTNV-1" vertex="1">
          <mxGeometry y="20" width="140" height="70" as="geometry" />
        </mxCell>
        <mxCell id="vWXfaH1pGNp-byhTUiaN-67" value="修改范式" style="ellipse;whiteSpace=wrap;html=1;" parent="WIyWlLk6GJQsqaUBKTNV-1" vertex="1">
          <mxGeometry x="10" y="130" width="140" height="70" as="geometry" />
        </mxCell>
        <mxCell id="vWXfaH1pGNp-byhTUiaN-68" value="删除范式" style="ellipse;whiteSpace=wrap;html=1;" parent="WIyWlLk6GJQsqaUBKTNV-1" vertex="1">
          <mxGeometry x="-330" y="-70" width="140" height="70" as="geometry" />
        </mxCell>
        <mxCell id="vWXfaH1pGNp-byhTUiaN-69" value="新增范式" style="ellipse;whiteSpace=wrap;html=1;" parent="WIyWlLk6GJQsqaUBKTNV-1" vertex="1">
          <mxGeometry x="-252" y="286" width="140" height="70" as="geometry" />
        </mxCell>
        <mxCell id="vWXfaH1pGNp-byhTUiaN-70" value="&amp;lt;&amp;lt;refine&amp;gt;&amp;gt;" style="html=1;verticalAlign=bottom;labelBackgroundColor=none;endArrow=open;endFill=0;dashed=1;rounded=0;" parent="WIyWlLk6GJQsqaUBKTNV-1" source="vWXfaH1pGNp-byhTUiaN-62" target="vWXfaH1pGNp-byhTUiaN-67" edge="1">
          <mxGeometry width="160" relative="1" as="geometry">
            <mxPoint x="-82" y="207" as="sourcePoint" />
            <mxPoint x="78" y="207" as="targetPoint" />
          </mxGeometry>
        </mxCell>
        <mxCell id="vWXfaH1pGNp-byhTUiaN-71" value="&amp;lt;&amp;lt;refine&amp;gt;&amp;gt;" style="html=1;verticalAlign=bottom;labelBackgroundColor=none;endArrow=open;endFill=0;dashed=1;rounded=0;" parent="WIyWlLk6GJQsqaUBKTNV-1" source="vWXfaH1pGNp-byhTUiaN-62" target="vWXfaH1pGNp-byhTUiaN-66" edge="1">
          <mxGeometry width="160" relative="1" as="geometry">
            <mxPoint x="-103" y="145" as="sourcePoint" />
            <mxPoint x="23" y="165" as="targetPoint" />
          </mxGeometry>
        </mxCell>
        <mxCell id="vWXfaH1pGNp-byhTUiaN-72" value="&amp;lt;&amp;lt;refine&amp;gt;&amp;gt;" style="html=1;verticalAlign=bottom;labelBackgroundColor=none;endArrow=open;endFill=0;dashed=1;rounded=0;" parent="WIyWlLk6GJQsqaUBKTNV-1" source="vWXfaH1pGNp-byhTUiaN-62" target="vWXfaH1pGNp-byhTUiaN-65" edge="1">
          <mxGeometry width="160" relative="1" as="geometry">
            <mxPoint x="-190" y="90" as="sourcePoint" />
            <mxPoint x="-62" y="54" as="targetPoint" />
          </mxGeometry>
        </mxCell>
        <mxCell id="vWXfaH1pGNp-byhTUiaN-73" value="&amp;lt;&amp;lt;refine&amp;gt;&amp;gt;" style="html=1;verticalAlign=bottom;labelBackgroundColor=none;endArrow=open;endFill=0;dashed=1;rounded=0;exitX=0.207;exitY=0.086;exitDx=0;exitDy=0;exitPerimeter=0;" parent="WIyWlLk6GJQsqaUBKTNV-1" source="vWXfaH1pGNp-byhTUiaN-62" target="vWXfaH1pGNp-byhTUiaN-68" edge="1">
          <mxGeometry width="160" relative="1" as="geometry">
            <mxPoint x="-240" y="82" as="sourcePoint" />
            <mxPoint x="-170" y="-12" as="targetPoint" />
          </mxGeometry>
        </mxCell>
        <mxCell id="vWXfaH1pGNp-byhTUiaN-74" value="&amp;lt;&amp;lt;refine&amp;gt;&amp;gt;" style="html=1;verticalAlign=bottom;labelBackgroundColor=none;endArrow=open;endFill=0;dashed=1;rounded=0;" parent="WIyWlLk6GJQsqaUBKTNV-1" source="vWXfaH1pGNp-byhTUiaN-62" target="vWXfaH1pGNp-byhTUiaN-69" edge="1">
          <mxGeometry width="160" relative="1" as="geometry">
            <mxPoint x="-172" y="197" as="sourcePoint" />
            <mxPoint x="-46" y="217" as="targetPoint" />
          </mxGeometry>
        </mxCell>
        <mxCell id="vWXfaH1pGNp-byhTUiaN-75" value="保存词生图配置" style="ellipse;whiteSpace=wrap;html=1;" parent="WIyWlLk6GJQsqaUBKTNV-1" vertex="1">
          <mxGeometry x="27" y="280" width="140" height="70" as="geometry" />
        </mxCell>
        <mxCell id="vWXfaH1pGNp-byhTUiaN-76" value="保存文生图配置" style="ellipse;whiteSpace=wrap;html=1;" parent="WIyWlLk6GJQsqaUBKTNV-1" vertex="1">
          <mxGeometry x="-46" y="430" width="140" height="70" as="geometry" />
        </mxCell>
        <mxCell id="vWXfaH1pGNp-byhTUiaN-77" value="保存第三方接口调用配置&lt;br&gt;通过插件来进行扩展" style="ellipse;whiteSpace=wrap;html=1;" parent="WIyWlLk6GJQsqaUBKTNV-1" vertex="1">
          <mxGeometry x="-520" y="286" width="140" height="70" as="geometry" />
        </mxCell>
        <mxCell id="vWXfaH1pGNp-byhTUiaN-78" value="保存controlNet配置&lt;br&gt;重难点" style="ellipse;whiteSpace=wrap;html=1;" parent="WIyWlLk6GJQsqaUBKTNV-1" vertex="1">
          <mxGeometry x="-394" y="417" width="140" height="70" as="geometry" />
        </mxCell>
        <mxCell id="vWXfaH1pGNp-byhTUiaN-79" value="&amp;lt;&amp;lt;include&amp;gt;&amp;gt;" style="html=1;verticalAlign=bottom;labelBackgroundColor=none;endArrow=open;endFill=0;dashed=1;rounded=0;" parent="WIyWlLk6GJQsqaUBKTNV-1" source="vWXfaH1pGNp-byhTUiaN-69" target="vWXfaH1pGNp-byhTUiaN-75" edge="1">
          <mxGeometry width="160" relative="1" as="geometry">
            <mxPoint x="-38" y="280" as="sourcePoint" />
            <mxPoint x="122" y="280" as="targetPoint" />
          </mxGeometry>
        </mxCell>
        <mxCell id="vWXfaH1pGNp-byhTUiaN-80" value="&amp;lt;&amp;lt;include&amp;gt;&amp;gt;" style="html=1;verticalAlign=bottom;labelBackgroundColor=none;endArrow=open;endFill=0;dashed=1;rounded=0;" parent="WIyWlLk6GJQsqaUBKTNV-1" source="vWXfaH1pGNp-byhTUiaN-69" target="vWXfaH1pGNp-byhTUiaN-76" edge="1">
          <mxGeometry x="0.0037" width="160" relative="1" as="geometry">
            <mxPoint x="-106" y="300" as="sourcePoint" />
            <mxPoint x="55" y="356" as="targetPoint" />
            <mxPoint as="offset" />
          </mxGeometry>
        </mxCell>
        <mxCell id="vWXfaH1pGNp-byhTUiaN-81" value="&amp;lt;&amp;lt;include&amp;gt;&amp;gt;" style="html=1;verticalAlign=bottom;labelBackgroundColor=none;endArrow=open;endFill=0;dashed=1;rounded=0;" parent="WIyWlLk6GJQsqaUBKTNV-1" source="vWXfaH1pGNp-byhTUiaN-69" target="vWXfaH1pGNp-byhTUiaN-78" edge="1">
          <mxGeometry x="0.0037" width="160" relative="1" as="geometry">
            <mxPoint x="-142" y="313" as="sourcePoint" />
            <mxPoint x="-75" y="417" as="targetPoint" />
            <mxPoint as="offset" />
          </mxGeometry>
        </mxCell>
        <mxCell id="vWXfaH1pGNp-byhTUiaN-82" value="&amp;lt;&amp;lt;include&amp;gt;&amp;gt;" style="html=1;verticalAlign=bottom;labelBackgroundColor=none;endArrow=open;endFill=0;dashed=1;rounded=0;" parent="WIyWlLk6GJQsqaUBKTNV-1" source="vWXfaH1pGNp-byhTUiaN-69" target="vWXfaH1pGNp-byhTUiaN-77" edge="1">
          <mxGeometry x="0.0037" width="160" relative="1" as="geometry">
            <mxPoint x="-198" y="311" as="sourcePoint" />
            <mxPoint x="-305" y="407" as="targetPoint" />
            <mxPoint as="offset" />
          </mxGeometry>
        </mxCell>
        <mxCell id="vWXfaH1pGNp-byhTUiaN-97" style="edgeStyle=orthogonalEdgeStyle;rounded=0;orthogonalLoop=1;jettySize=auto;html=1;" parent="WIyWlLk6GJQsqaUBKTNV-1" source="vWXfaH1pGNp-byhTUiaN-91" target="vWXfaH1pGNp-byhTUiaN-95" edge="1">
          <mxGeometry relative="1" as="geometry" />
        </mxCell>
        <mxCell id="vWXfaH1pGNp-byhTUiaN-91" value="用户" style="shape=umlActor;verticalLabelPosition=bottom;verticalAlign=top;html=1;" parent="WIyWlLk6GJQsqaUBKTNV-1" vertex="1">
          <mxGeometry x="-677" y="589" width="30" height="60" as="geometry" />
        </mxCell>
        <mxCell id="vWXfaH1pGNp-byhTUiaN-100" style="edgeStyle=orthogonalEdgeStyle;rounded=0;orthogonalLoop=1;jettySize=auto;html=1;entryX=0.5;entryY=0;entryDx=0;entryDy=0;" parent="WIyWlLk6GJQsqaUBKTNV-1" source="vWXfaH1pGNp-byhTUiaN-95" target="vWXfaH1pGNp-byhTUiaN-101" edge="1">
          <mxGeometry relative="1" as="geometry">
            <mxPoint x="-440" y="721" as="targetPoint" />
          </mxGeometry>
        </mxCell>
        <mxCell id="vWXfaH1pGNp-byhTUiaN-95" value="选择范式" style="html=1;align=center;verticalAlign=top;rounded=1;absoluteArcSize=1;arcSize=10;dashed=0;whiteSpace=wrap;" parent="WIyWlLk6GJQsqaUBKTNV-1" vertex="1">
          <mxGeometry x="-510" y="599" width="140" height="40" as="geometry" />
        </mxCell>
        <mxCell id="vWXfaH1pGNp-byhTUiaN-125" style="edgeStyle=orthogonalEdgeStyle;rounded=0;orthogonalLoop=1;jettySize=auto;html=1;" parent="WIyWlLk6GJQsqaUBKTNV-1" source="vWXfaH1pGNp-byhTUiaN-101" target="vWXfaH1pGNp-byhTUiaN-124" edge="1">
          <mxGeometry relative="1" as="geometry" />
        </mxCell>
        <mxCell id="vWXfaH1pGNp-byhTUiaN-101" value="上传图片" style="html=1;align=center;verticalAlign=top;rounded=1;absoluteArcSize=1;arcSize=10;dashed=0;whiteSpace=wrap;" parent="WIyWlLk6GJQsqaUBKTNV-1" vertex="1">
          <mxGeometry x="-510" y="687" width="140" height="40" as="geometry" />
        </mxCell>
        <mxCell id="vWXfaH1pGNp-byhTUiaN-138" style="edgeStyle=orthogonalEdgeStyle;rounded=0;orthogonalLoop=1;jettySize=auto;html=1;entryX=0.5;entryY=0;entryDx=0;entryDy=0;" parent="WIyWlLk6GJQsqaUBKTNV-1" source="vWXfaH1pGNp-byhTUiaN-102" target="vWXfaH1pGNp-byhTUiaN-137" edge="1">
          <mxGeometry relative="1" as="geometry" />
        </mxCell>
        <mxCell id="vWXfaH1pGNp-byhTUiaN-102" value="查询范式内容（顺序和参数）" style="html=1;align=center;verticalAlign=top;rounded=1;absoluteArcSize=1;arcSize=10;dashed=0;whiteSpace=wrap;" parent="WIyWlLk6GJQsqaUBKTNV-1" vertex="1">
          <mxGeometry x="-510" y="953" width="140" height="40" as="geometry" />
        </mxCell>
        <mxCell id="vWXfaH1pGNp-byhTUiaN-116" style="edgeStyle=orthogonalEdgeStyle;rounded=0;orthogonalLoop=1;jettySize=auto;html=1;entryX=0.2;entryY=0.15;entryDx=0;entryDy=0;entryPerimeter=0;" parent="WIyWlLk6GJQsqaUBKTNV-1" source="vWXfaH1pGNp-byhTUiaN-103" target="vWXfaH1pGNp-byhTUiaN-115" edge="1">
          <mxGeometry relative="1" as="geometry" />
        </mxCell>
        <mxCell id="vWXfaH1pGNp-byhTUiaN-103" value="调用词生图" style="html=1;align=center;verticalAlign=top;rounded=1;absoluteArcSize=1;arcSize=10;dashed=0;whiteSpace=wrap;" parent="WIyWlLk6GJQsqaUBKTNV-1" vertex="1">
          <mxGeometry x="-229" y="694" width="140" height="40" as="geometry" />
        </mxCell>
        <mxCell id="vWXfaH1pGNp-byhTUiaN-118" style="edgeStyle=orthogonalEdgeStyle;rounded=0;orthogonalLoop=1;jettySize=auto;html=1;entryX=0.4;entryY=0.688;entryDx=0;entryDy=0;entryPerimeter=0;" parent="WIyWlLk6GJQsqaUBKTNV-1" source="vWXfaH1pGNp-byhTUiaN-104" target="vWXfaH1pGNp-byhTUiaN-115" edge="1">
          <mxGeometry relative="1" as="geometry" />
        </mxCell>
        <mxCell id="vWXfaH1pGNp-byhTUiaN-104" value="调用文生图" style="html=1;align=center;verticalAlign=top;rounded=1;absoluteArcSize=1;arcSize=10;dashed=0;whiteSpace=wrap;" parent="WIyWlLk6GJQsqaUBKTNV-1" vertex="1">
          <mxGeometry x="-228" y="761" width="140" height="40" as="geometry" />
        </mxCell>
        <mxCell id="vWXfaH1pGNp-byhTUiaN-119" style="edgeStyle=orthogonalEdgeStyle;rounded=0;orthogonalLoop=1;jettySize=auto;html=1;entryX=-1;entryY=0.838;entryDx=0;entryDy=0;entryPerimeter=0;" parent="WIyWlLk6GJQsqaUBKTNV-1" source="vWXfaH1pGNp-byhTUiaN-105" target="vWXfaH1pGNp-byhTUiaN-115" edge="1">
          <mxGeometry relative="1" as="geometry" />
        </mxCell>
        <mxCell id="vWXfaH1pGNp-byhTUiaN-105" value="调用controlNet" style="html=1;align=center;verticalAlign=top;rounded=1;absoluteArcSize=1;arcSize=10;dashed=0;whiteSpace=wrap;" parent="WIyWlLk6GJQsqaUBKTNV-1" vertex="1">
          <mxGeometry x="-226" y="829" width="140" height="40" as="geometry" />
        </mxCell>
        <mxCell id="vWXfaH1pGNp-byhTUiaN-120" style="edgeStyle=orthogonalEdgeStyle;rounded=0;orthogonalLoop=1;jettySize=auto;html=1;entryX=0;entryY=0.663;entryDx=0;entryDy=0;entryPerimeter=0;" parent="WIyWlLk6GJQsqaUBKTNV-1" source="vWXfaH1pGNp-byhTUiaN-106" target="vWXfaH1pGNp-byhTUiaN-115" edge="1">
          <mxGeometry relative="1" as="geometry" />
        </mxCell>
        <mxCell id="vWXfaH1pGNp-byhTUiaN-106" value="调用第三方接口" style="html=1;align=center;verticalAlign=top;rounded=1;absoluteArcSize=1;arcSize=10;dashed=0;whiteSpace=wrap;" parent="WIyWlLk6GJQsqaUBKTNV-1" vertex="1">
          <mxGeometry x="-228" y="903" width="140" height="40" as="geometry" />
        </mxCell>
        <mxCell id="vWXfaH1pGNp-byhTUiaN-110" style="edgeStyle=orthogonalEdgeStyle;rounded=0;orthogonalLoop=1;jettySize=auto;html=1;entryX=0;entryY=0.25;entryDx=0;entryDy=0;exitX=0.8;exitY=0.112;exitDx=0;exitDy=0;exitPerimeter=0;" parent="WIyWlLk6GJQsqaUBKTNV-1" source="vWXfaH1pGNp-byhTUiaN-107" target="vWXfaH1pGNp-byhTUiaN-103" edge="1">
          <mxGeometry relative="1" as="geometry" />
        </mxCell>
        <mxCell id="vWXfaH1pGNp-byhTUiaN-111" style="edgeStyle=orthogonalEdgeStyle;rounded=0;orthogonalLoop=1;jettySize=auto;html=1;exitX=0.6;exitY=0.289;exitDx=0;exitDy=0;exitPerimeter=0;" parent="WIyWlLk6GJQsqaUBKTNV-1" source="vWXfaH1pGNp-byhTUiaN-107" target="vWXfaH1pGNp-byhTUiaN-104" edge="1">
          <mxGeometry relative="1" as="geometry" />
        </mxCell>
        <mxCell id="vWXfaH1pGNp-byhTUiaN-112" style="edgeStyle=orthogonalEdgeStyle;rounded=0;orthogonalLoop=1;jettySize=auto;html=1;exitX=1;exitY=0.412;exitDx=0;exitDy=0;exitPerimeter=0;" parent="WIyWlLk6GJQsqaUBKTNV-1" source="vWXfaH1pGNp-byhTUiaN-107" target="vWXfaH1pGNp-byhTUiaN-105" edge="1">
          <mxGeometry relative="1" as="geometry" />
        </mxCell>
        <mxCell id="vWXfaH1pGNp-byhTUiaN-113" style="edgeStyle=orthogonalEdgeStyle;rounded=0;orthogonalLoop=1;jettySize=auto;html=1;" parent="WIyWlLk6GJQsqaUBKTNV-1" source="vWXfaH1pGNp-byhTUiaN-107" target="vWXfaH1pGNp-byhTUiaN-106" edge="1">
          <mxGeometry relative="1" as="geometry" />
        </mxCell>
        <mxCell id="vWXfaH1pGNp-byhTUiaN-107" value="" style="html=1;points=[];perimeter=orthogonalPerimeter;fillColor=strokeColor;" parent="WIyWlLk6GJQsqaUBKTNV-1" vertex="1">
          <mxGeometry x="-322" y="729" width="7" height="187" as="geometry" />
        </mxCell>
        <mxCell id="vWXfaH1pGNp-byhTUiaN-122" style="edgeStyle=orthogonalEdgeStyle;rounded=0;orthogonalLoop=1;jettySize=auto;html=1;" parent="WIyWlLk6GJQsqaUBKTNV-1" source="vWXfaH1pGNp-byhTUiaN-115" target="vWXfaH1pGNp-byhTUiaN-121" edge="1">
          <mxGeometry relative="1" as="geometry" />
        </mxCell>
        <mxCell id="vWXfaH1pGNp-byhTUiaN-115" value="" style="html=1;points=[];perimeter=orthogonalPerimeter;fillColor=strokeColor;" parent="WIyWlLk6GJQsqaUBKTNV-1" vertex="1">
          <mxGeometry y="765" width="5" height="113" as="geometry" />
        </mxCell>
        <mxCell id="vWXfaH1pGNp-byhTUiaN-145" style="edgeStyle=orthogonalEdgeStyle;rounded=0;orthogonalLoop=1;jettySize=auto;html=1;" parent="WIyWlLk6GJQsqaUBKTNV-1" source="vWXfaH1pGNp-byhTUiaN-121" target="vWXfaH1pGNp-byhTUiaN-144" edge="1">
          <mxGeometry relative="1" as="geometry" />
        </mxCell>
        <mxCell id="vWXfaH1pGNp-byhTUiaN-121" value="更新每个步骤状态" style="html=1;align=center;verticalAlign=top;rounded=1;absoluteArcSize=1;arcSize=10;dashed=0;whiteSpace=wrap;" parent="WIyWlLk6GJQsqaUBKTNV-1" vertex="1">
          <mxGeometry x="35" y="909" width="140" height="40" as="geometry" />
        </mxCell>
        <mxCell id="vWXfaH1pGNp-byhTUiaN-135" style="edgeStyle=orthogonalEdgeStyle;rounded=0;orthogonalLoop=1;jettySize=auto;html=1;" parent="WIyWlLk6GJQsqaUBKTNV-1" source="vWXfaH1pGNp-byhTUiaN-123" target="vWXfaH1pGNp-byhTUiaN-102" edge="1">
          <mxGeometry relative="1" as="geometry" />
        </mxCell>
        <mxCell id="vWXfaH1pGNp-byhTUiaN-123" value="生成合成记录" style="html=1;align=center;verticalAlign=top;rounded=1;absoluteArcSize=1;arcSize=10;dashed=0;whiteSpace=wrap;" parent="WIyWlLk6GJQsqaUBKTNV-1" vertex="1">
          <mxGeometry x="-510" y="873" width="140" height="40" as="geometry" />
        </mxCell>
        <mxCell id="vWXfaH1pGNp-byhTUiaN-134" style="edgeStyle=orthogonalEdgeStyle;rounded=0;orthogonalLoop=1;jettySize=auto;html=1;entryX=0.5;entryY=0;entryDx=0;entryDy=0;" parent="WIyWlLk6GJQsqaUBKTNV-1" source="vWXfaH1pGNp-byhTUiaN-124" target="vWXfaH1pGNp-byhTUiaN-123" edge="1">
          <mxGeometry relative="1" as="geometry" />
        </mxCell>
        <mxCell id="vWXfaH1pGNp-byhTUiaN-124" value="调用合成接口" style="html=1;align=center;verticalAlign=top;rounded=1;absoluteArcSize=1;arcSize=10;dashed=0;whiteSpace=wrap;" parent="WIyWlLk6GJQsqaUBKTNV-1" vertex="1">
          <mxGeometry x="-510" y="785" width="140" height="40" as="geometry" />
        </mxCell>
        <mxCell id="vWXfaH1pGNp-byhTUiaN-143" style="edgeStyle=orthogonalEdgeStyle;rounded=0;orthogonalLoop=1;jettySize=auto;html=1;entryX=0.5;entryY=0;entryDx=0;entryDy=0;" parent="WIyWlLk6GJQsqaUBKTNV-1" source="vWXfaH1pGNp-byhTUiaN-131" target="vWXfaH1pGNp-byhTUiaN-141" edge="1">
          <mxGeometry relative="1" as="geometry" />
        </mxCell>
        <mxCell id="vWXfaH1pGNp-byhTUiaN-147" value="" style="edgeStyle=orthogonalEdgeStyle;rounded=0;orthogonalLoop=1;jettySize=auto;html=1;" parent="WIyWlLk6GJQsqaUBKTNV-1" source="vWXfaH1pGNp-byhTUiaN-131" target="vWXfaH1pGNp-byhTUiaN-144" edge="1">
          <mxGeometry relative="1" as="geometry" />
        </mxCell>
        <mxCell id="vWXfaH1pGNp-byhTUiaN-131" value="生成最终结果，保存作品" style="html=1;align=center;verticalAlign=top;rounded=1;absoluteArcSize=1;arcSize=10;dashed=0;whiteSpace=wrap;" parent="WIyWlLk6GJQsqaUBKTNV-1" vertex="1">
          <mxGeometry x="35" y="1071" width="140" height="40" as="geometry" />
        </mxCell>
        <mxCell id="vWXfaH1pGNp-byhTUiaN-139" style="edgeStyle=orthogonalEdgeStyle;rounded=0;orthogonalLoop=1;jettySize=auto;html=1;entryX=0.143;entryY=0.316;entryDx=0;entryDy=0;entryPerimeter=0;" parent="WIyWlLk6GJQsqaUBKTNV-1" source="vWXfaH1pGNp-byhTUiaN-137" target="vWXfaH1pGNp-byhTUiaN-107" edge="1">
          <mxGeometry relative="1" as="geometry" />
        </mxCell>
        <mxCell id="vWXfaH1pGNp-byhTUiaN-137" value="组装链式调用对象（不同处理器，调用不同步骤）" style="html=1;align=center;verticalAlign=top;rounded=1;absoluteArcSize=1;arcSize=10;dashed=0;whiteSpace=wrap;" parent="WIyWlLk6GJQsqaUBKTNV-1" vertex="1">
          <mxGeometry x="-510" y="1036" width="140" height="40" as="geometry" />
        </mxCell>
        <mxCell id="vWXfaH1pGNp-byhTUiaN-141" value="" style="ellipse;html=1;shape=endState;fillColor=strokeColor;" parent="WIyWlLk6GJQsqaUBKTNV-1" vertex="1">
          <mxGeometry x="90" y="1169" width="30" height="30" as="geometry" />
        </mxCell>
        <mxCell id="vWXfaH1pGNp-byhTUiaN-146" style="edgeStyle=orthogonalEdgeStyle;rounded=0;orthogonalLoop=1;jettySize=auto;html=1;" parent="WIyWlLk6GJQsqaUBKTNV-1" source="vWXfaH1pGNp-byhTUiaN-144" target="vWXfaH1pGNp-byhTUiaN-131" edge="1">
          <mxGeometry relative="1" as="geometry" />
        </mxCell>
        <mxCell id="vWXfaH1pGNp-byhTUiaN-144" value="保存临时结果和临时数据" style="html=1;align=center;verticalAlign=top;rounded=1;absoluteArcSize=1;arcSize=10;dashed=0;whiteSpace=wrap;" parent="WIyWlLk6GJQsqaUBKTNV-1" vertex="1">
          <mxGeometry x="35" y="990" width="140" height="40" as="geometry" />
        </mxCell>
        <mxCell id="vWXfaH1pGNp-byhTUiaN-149" value="保存超分配置" style="ellipse;whiteSpace=wrap;html=1;" parent="WIyWlLk6GJQsqaUBKTNV-1" vertex="1">
          <mxGeometry x="-231" y="448" width="140" height="70" as="geometry" />
        </mxCell>
        <mxCell id="vWXfaH1pGNp-byhTUiaN-150" value="&amp;lt;&amp;lt;include&amp;gt;&amp;gt;" style="html=1;verticalAlign=bottom;labelBackgroundColor=none;endArrow=open;endFill=0;dashed=1;rounded=0;" parent="WIyWlLk6GJQsqaUBKTNV-1" source="vWXfaH1pGNp-byhTUiaN-69" target="vWXfaH1pGNp-byhTUiaN-149" edge="1">
          <mxGeometry x="0.0037" width="160" relative="1" as="geometry">
            <mxPoint x="-131" y="359" as="sourcePoint" />
            <mxPoint x="-7" y="447" as="targetPoint" />
            <mxPoint as="offset" />
          </mxGeometry>
        </mxCell>
      </root>
    </mxGraphModel>
  </diagram>
</mxfile>
